<?xml version="1.0" encoding="UTF-8"?>
<svg id="_레이어_1" data-name="레이어 1" xmlns="http://www.w3.org/2000/svg" viewBox="0 0 200 200">
  <defs>
    <style>
      .cls-1 {
        fill: #86bc43;
      }

      .cls-1, .cls-2, .cls-3, .cls-4 {
        stroke-width: 0px;
      }

      .cls-2 {
        fill: #fff;
      }

      .cls-3 {
        fill: #323333;
      }

      .cls-4 {
        fill: #f0aa3f;
      }
    </style>
  </defs>
  <path class="cls-4" d="m99.4,168.37c-9.57.06-19.11-.83-28.39-2.65-6.56-1.29-13.26-3.18-17.93-7.37-2.6-2.33-4.43-5.25-6.04-8.21-7.95-14.61-11.13-32.67-2.18-47.33,9.87-16.18,31.4-23.82,51.58-27.65,8.45-1.61,17.36-2.77,25.47-.52,7.13,1.97,12.99,6.43,17.67,11.53,13.82,15.05,18.14,36.64,11.11,55.56-1.91,5.16-4.66,10.17-8.76,14.26-10.55,10.51-24.99,10.48-40.55,12.27l-1.97.13Z"/>
  <path class="cls-1" d="m85.2,54.74s-7.07-23.56,27.46-23.11c0,0-1.18,26.17-27.46,23.11Z"/>
  <path class="cls-3" d="m68.89,62.42c-10.83,6.84-17.93,18.4-20.67,30.78-1.62,7.32-2.12,14.91-1.31,22.37.68,6.37,1.66,13.56,4.96,19.17,2.89,4.92,7.08,9.1,11.44,12.73,3.79,3.15,7.76,5.89,12.41,7.6,6.83,2.52,14.21,3.11,21.43,3.27,7.46.16,15.07-.01,22.26-2.23,24.53-7.58,32.5-37.25,31.2-60.15-.7-12.28-4.28-24.89-12.75-34.13-9.1-9.93-22.73-14.01-35.86-14.4-5.68-.17-12.12.16-16.82,3.76-3.81,2.91-6.53,9.79-.45,11.87,5.77,1.98,12.34-.01,17.07-3.53,5.3-3.94,8.5-9.93,10.23-16.2.89-3.22,1.4-6.53,1.74-9.85.15-1.48-2.16-1.47-2.31,0-1.22,11.75-6.51,26.62-20.28,27.96-2.43.24-7.81.24-7.8-3.19,0-2.81,2.65-5.1,4.92-6.3,4.93-2.61,11.11-2.42,16.51-2.04,12.13.86,24.3,5.2,32.36,14.65,7.45,8.74,10.54,20.46,11.14,31.72,1.09,20.5-5.14,47.27-25.9,56.3-6.43,2.8-13.57,3.48-20.51,3.52s-13.34-.14-19.82-1.57c-9.97-2.19-18.22-8.43-24.75-16.13-1.69-1.99-3.25-4.16-4.38-6.52-1.3-2.71-1.88-5.8-2.49-8.72-1.41-6.65-1.95-13.44-1.38-20.22,1.02-12.19,5.33-24.27,14.12-33.04,2.09-2.08,4.38-3.9,6.87-5.47,1.26-.79.1-2.8-1.17-2h0Z"/>
  <path class="cls-2" d="m113.23,135.37c5.7-3.1,6.13-5.26,6.91-7.22-1.13-.59-2.26-.25-5.1-1.92-2.28-1.34-3.95-3.95-2.12-7.92,1.09-2.36,2.61-3.47,5.8-3.97,5.56,0,7.05,3.08,7.1,7.64.06,5.98-3.84,14.19-12.57,13.4Z"/>
</svg>