<svg xmlns="http://www.w3.org/2000/svg" width="297.722" height="60.139" viewBox="0 0 297.722 60.139">
  <g id="그룹_753" data-name="그룹 753" transform="translate(-576 1.105)">
    <g id="그룹_749" data-name="그룹 749" transform="translate(576 -1.105)">
      <g id="그룹_3" data-name="그룹 3" transform="translate(6.161 7.369)">
        <path id="패스_1" data-name="패스 1" d="M172.675,469.432c-.151.954-.6,1.607-1.658,1.5-1.807-.151-5.419-.251-7.627-.2l-3.915.049-.049,14.2c0,1.856-1.556,3.563-2.911,3.563l-.5-.3-.3-17.416-10.641.2-.149,12.848c0,1.856-1.607,3.563-2.961,3.563l-.5-.3-.2-16.06-3.012.051a18.743,18.743,0,0,0-4.566,1.1c-.9,0-6.624-3.261-6.624-3.663,0-.3.2-.753.451-.753a70.5,70.5,0,0,0,11.844.9l22.786-.452c1.554,0,3.612-1.556,4.566-1.605a22.492,22.492,0,0,1,5.069.9C172.624,467.927,172.824,468.478,172.675,469.432Zm-39.3-19.824c0-.4.2-.753.5-.753a51.072,51.072,0,0,0,8.231.6l14.1-.452c2.458-.2,3.614-1.305,4.316-1.355a21.632,21.632,0,0,1,3.764.4,1.62,1.62,0,0,1,1.454,1.807c-.1.9-.6,1.3-1.705,1.254-1.607-.05-3.964-.251-6.273-.15l-14.706.5c-1,.05-3.061,1.254-3.664,1.254C139,452.72,133.378,450.06,133.378,449.608Zm25.647,10.037c0,4.366-4.066,7.027-9.034,7.027-4.868,0-8.932-2.661-8.932-7.027,0-4.416,4.065-7.126,8.882-7.126C154.958,452.519,159.024,455.229,159.024,459.645Zm-16.111-16.512a.613.613,0,0,1,.652-.5,61.4,61.4,0,0,0,9.636,1.255c1.607.1,2.208.5,2.208,1.455,0,1-.6,1.405-1.958,1.506a37.177,37.177,0,0,1-6.122-.2A15.16,15.16,0,0,1,142.913,443.134Zm12.7,16.512c0-3.011-2.608-4.767-5.671-4.767-3.111,0-5.521,1.756-5.521,4.767,0,2.961,2.41,4.568,5.571,4.568C153,464.213,155.61,462.607,155.61,459.645Z" transform="translate(-127.055 -441.88)" fill="#fff"/>
        <path id="패스_2" data-name="패스 2" d="M291.88,467.423l-1.154-1.054a50.352,50.352,0,0,0,14.956-17.263c.151-.8-1.857-2.208-3.463-3.263-.1-.351,1-1.053,1.556-1.053,1,0,6.122,1.556,6.624,2.409.3.5.3,1.054-.5,2.61a30.215,30.215,0,0,1-2.208,3.714l4.567,4.266c1.305,1.2,1.907,0,3.463,1.856,1.405,1.707,2.158,3.614,2.007,4.919a1.406,1.406,0,0,1-1.656,1.1l-9.887-10.088A51.231,51.231,0,0,1,291.88,467.423Zm35.935,3.163-.1,12.1c0,1.856-1.355,4.064-2.71,4.064l-.5-.3-.3-14.855-13.4.451c-1.254.1-2.509,1.256-3.161,1.256a26.674,26.674,0,0,1-5.12-3.112c0-.351.252-.753.553-.753a60.37,60.37,0,0,0,7.678.3l15.258-.5C327.864,469.181,327.815,469.23,327.815,470.586Zm.15-22.835-.049,13.5-.1,1.858c-.1,1.856-1.3,4.366-2.661,4.366l-.5-.3-.251-5.922-.151-13.5v-2.66c0-.351,0-.351-.3-.552l-4.317-2.71c0-.2.854-1.154,1.205-1.154a53.584,53.584,0,0,1,6.424,1.706c.752.251.752.251.752,1.2Z" transform="translate(-228.101 -440.674)" fill="#fff"/>
        <path id="패스_3" data-name="패스 3" d="M490.618,463.057c0,1.254-.652,1.707-1.907,1.707h-6.726v14.253l-.049,1.807c-.251,3.865-1.556,6.224-2.961,6.424l-.5-.3-.1-7.929-.049-9.887a114.252,114.252,0,0,1-22.284,5.671l-.953.151c-1.707.251-2.559,1.254-3.513,1.254s-6.373-3.061-6.624-3.814c-.051-.3.3-.8.551-.8a48.576,48.576,0,0,0,10.137.049l1.305-.149-.151-9.234c0-.5.051-.652-.4-.854l-3.314-1.555c-.1-.352.753-1.155,1.205-1.155l5.37.652c.7.1.7.352.7,1.054l-.2,10.69c6.474-.9,11.9-1.957,18.168-3.413L478.172,447v-1.707c0-.5,0-.5-.351-.7l-4.317-2.559c0-.3.854-1.355,1.2-1.355a61.728,61.728,0,0,1,6.726,1.757c.6.2.6.2.6.8v19.222h.852c1.256,0,3.112-1.656,3.463-1.656C490.016,460.8,490.618,461.5,490.618,463.057Zm-42.91-14.2c0-.352.251-.753.552-.753a62.646,62.646,0,0,0,7.729.4h1.1l12.6-.7c2.257-.151,2.359-.151,2.007,1.757a91.95,91.95,0,0,1-4.617,17.917h-1.705a113.155,113.155,0,0,0,1.907-17.064l-11.141.552c-1.407.05-2.561,1.154-3.263,1.154S447.709,449.357,447.709,448.855Z" transform="translate(-323.31 -440.674)" fill="#fff"/>
        <path id="패스_4" data-name="패스 4" d="M769.71,464.964c-5.971,0-10.79-3.863-10.79-9.384,0-5.622,4.819-9.485,10.79-9.485,6.124,0,10.741,3.863,10.741,9.485C780.451,461.1,775.834,464.964,769.71,464.964Zm0-2.961c4.115,0,7.027-2.409,7.027-6.423,0-3.965-2.912-6.474-7.027-6.474-4.014,0-7.075,2.509-7.075,6.474C762.635,459.594,765.7,462,769.71,462Zm26.9,22.534c-.051,1.055-.7,1.556-1.957,1.556l-18.72-.051c-2.761,0-3.011-1.656-3.061-4.315l-.051-3.614-3.512-1.354a1.516,1.516,0,0,1,.9-1.305l6.223.7,13.651-.3.1-5.17-12.144.451c-1.405,0-2.661,1.154-3.313,1.154a25.547,25.547,0,0,1-5.168-3.061c0-.3.251-.753.551-.753a73.929,73.929,0,0,0,7.88.3l15.057-.5c1.454-.051,1.454-.051,1.154,1.254l-1.606,6.324c.854.149,1.707.5,1.707,1.254a1.071,1.071,0,0,1-1.2,1.154l-16.611.1v5.27h11.743c1.456,0,2.861-1.154,3.163-1.154a20.741,20.741,0,0,1,4.014.4A1.533,1.533,0,0,1,796.611,484.537Zm-6.273-40-4.317-2.71c0-.2.854-1.154,1.205-1.154a53.55,53.55,0,0,1,6.423,1.706c.753.251.753.251.753,1.2l-.049,4.166L794.3,460l-.1,1.807c-.1,1.857-1.3,4.366-2.659,4.366l-.5-.3L790.789,460l-.149-12.245v-2.66C790.64,444.739,790.64,444.739,790.338,444.539Z" transform="translate(-517.15 -440.674)" fill="#fff"/>
      </g>
      <g id="그룹_4" data-name="그룹 4" transform="translate(0)">
        <path id="패스_5" data-name="패스 5" d="M171.091,481.552H110.952V421.414h60.139Zm-59.4-.743h58.653V422.157H111.695Z" transform="translate(-110.952 -421.414)" fill="#fff"/>
      </g>
      <g id="그룹_5" data-name="그룹 5" transform="translate(59.396)">
        <path id="패스_6" data-name="패스 6" d="M326.322,481.552H266.183V421.414h60.139Zm-59.4-.743h58.653V422.157H266.926Z" transform="translate(-266.183 -421.414)" fill="#fff"/>
      </g>
      <g id="그룹_6" data-name="그룹 6" transform="translate(118.792)">
        <path id="패스_7" data-name="패스 7" d="M481.552,481.552H421.414V421.414h60.138Zm-59.4-.743H480.81V422.157H422.157Z" transform="translate(-421.414 -421.414)" fill="#fff"/>
      </g>
      <g id="그룹_7" data-name="그룹 7" transform="translate(178.188)">
        <path id="패스_8" data-name="패스 8" d="M636.784,481.552H576.645V421.414h60.138Zm-59.4-.743h58.653V422.157H577.388Z" transform="translate(-576.645 -421.414)" fill="#fff"/>
      </g>
      <g id="그룹_8" data-name="그룹 8" transform="translate(237.584)">
        <path id="패스_9" data-name="패스 9" d="M792.015,481.552H731.876V421.414h60.139Zm-59.4-.743h58.653V422.157H732.619Z" transform="translate(-731.876 -421.414)" fill="#fff"/>
      </g>
      <g id="그룹_9" data-name="그룹 9" transform="translate(200.946 7.361)">
        <path id="패스_10" data-name="패스 10" d="M636.444,451.865s-3.779-11.43,14.69-11.211C651.133,440.654,650.5,453.351,636.444,451.865Z" transform="translate(-636.125 -440.651)" fill="#fff"/>
      </g>
      <g id="그룹_10" data-name="그룹 10" transform="translate(191.894 23.699)">
        <path id="패스_11" data-name="패스 11" d="M628.989,508.651a40.965,40.965,0,0,1-7.854-.664,10.482,10.482,0,0,1-4.952-1.935,7.834,7.834,0,0,1-1.659-2.177c-2.178-3.875-3.032-8.678-.534-12.594,2.756-4.32,8.728-6.385,14.317-7.436a16.385,16.385,0,0,1,7.049-.176,10.491,10.491,0,0,1,4.874,3.041,13.993,13.993,0,0,1,2.993,14.769,10.467,10.467,0,0,1-2.447,3.808c-2.936,2.813-6.932,2.826-11.242,3.324Z" transform="translate(-612.466 -483.352)" fill="#fff"/>
      </g>
    </g>
  </g>
</svg>
