<?xml version="1.0" encoding="UTF-8"?>
<svg id="_레이어_1" data-name="레이어 1" xmlns="http://www.w3.org/2000/svg" viewBox="0 0 100 100">
  <defs>
    <style>
      .cls-1 {
        fill: #86bc43;
      }

      .cls-1, .cls-2 {
        stroke-width: 0px;
      }

      .cls-2 {
        fill: #f0aa3f;
      }
    </style>
  </defs>
  <path class="cls-1" d="m36.31,29.72s-7.98-24.14,31.02-23.68c0,0-1.33,26.81-31.02,23.68Z"/>
  <path class="cls-2" d="m51.42,93.96c-5.59.06-11.17-.41-16.59-1.4-3.83-.7-7.74-1.75-10.46-4.09-1.51-1.3-2.57-2.94-3.5-4.6-4.6-8.18-6.4-18.33-1.13-26.6,5.82-9.12,18.43-13.48,30.23-15.7,4.94-.93,10.15-1.61,14.89-.37,4.16,1.09,7.57,3.58,10.29,6.42,8.03,8.42,10.49,20.54,6.32,31.19-1.14,2.9-2.76,5.73-5.17,8.04-6.2,5.94-14.64,5.97-23.74,7.02l-1.15.08Z"/>
</svg>